<?xml version="1.0" standalone="no"?>
<svg version="1.0" xmlns="http://www.w3.org/2000/svg"
 width="498.000000pt" height="373.000000pt" viewBox="0 0 498.000000 373.000000"
 preserveAspectRatio="xMidYMid meet">
<metadata>
Created by potrace 1.16, written by Peter Selinger 2001-2019
</metadata>
<g transform="translate(0.000000,373.000000) scale(0.100000,-0.100000)"
fill="#000000" stroke="none">
<path d="M3440 2745 c-311 -542 -571 -998 -578 -1014 -13 -26 -7 -37 217 -381
127 -195 236 -355 242 -355 14 0 1152 1961 1181 2035 26 68 35 212 18 293 -16
81 -64 169 -126 237 -92 99 -200 153 -328 165 l-61 6 -565 -986z"/>
<path d="M4376 2172 c-52 -103 -59 -271 -17 -382 12 -30 48 -102 81 -160 l59
-105 -189 -5 -190 -5 93 -165 94 -165 -258 -3 -258 -2 -11 -38 c-12 -46 -12
-58 1 -105 14 -52 72 -114 117 -127 34 -9 892 -15 892 -6 0 2 -42 78 -94 170
l-95 166 190 0 c107 0 189 4 189 9 0 22 -553 971 -566 971 -7 0 -25 -22 -38
-48z"/>
<path d="M2493 1738 c-27 -35 -613 -1048 -613 -1060 0 -26 67 -93 121 -123 69
-37 189 -47 268 -20 67 22 142 91 192 177 22 38 43 67 45 65 3 -3 105 -177
228 -388 l223 -384 46 2 c60 2 142 40 191 89 77 77 112 206 84 309 -13 47
-755 1344 -769 1345 -4 0 -11 -6 -16 -12z"/>
</g>
</svg>
